<mxfile host="app.diagrams.net" modified="2023-10-18T05:45:18.877Z" agent="Mozilla/5.0 (Windows NT 10.0; Win64; x64) AppleWebKit/537.36 (KHTML, like Gecko) Chrome/117.0.0.0 Safari/537.36" etag="nE2spd6Gp_HUtmDUfU-z" version="22.0.4" type="github">
  <diagram name="Page-1" id="8Esth4RaEAFLG3FMTzXn">
    <mxGraphModel dx="1221" dy="630" grid="1" gridSize="10" guides="1" tooltips="1" connect="1" arrows="1" fold="1" page="1" pageScale="1" pageWidth="1169" pageHeight="827" math="0" shadow="0">
      <root>
        <mxCell id="0" />
        <mxCell id="1" parent="0" />
        <mxCell id="PIDiYUng-bvoLBhdt_yV-9" style="edgeStyle=orthogonalEdgeStyle;rounded=0;orthogonalLoop=1;jettySize=auto;html=1;exitX=0.8555;exitY=0.145;exitDx=0;exitDy=0;exitPerimeter=0;entryX=0.5;entryY=1;entryDx=0;entryDy=0;" edge="1" parent="1" source="PIDiYUng-bvoLBhdt_yV-1" target="PIDiYUng-bvoLBhdt_yV-2">
          <mxGeometry relative="1" as="geometry" />
        </mxCell>
        <mxCell id="PIDiYUng-bvoLBhdt_yV-16" value="Port 5" style="edgeLabel;html=1;align=center;verticalAlign=middle;resizable=0;points=[];" vertex="1" connectable="0" parent="PIDiYUng-bvoLBhdt_yV-9">
          <mxGeometry x="-0.5927" y="1" relative="1" as="geometry">
            <mxPoint x="4" as="offset" />
          </mxGeometry>
        </mxCell>
        <mxCell id="PIDiYUng-bvoLBhdt_yV-10" style="edgeStyle=orthogonalEdgeStyle;rounded=0;orthogonalLoop=1;jettySize=auto;html=1;exitX=0.145;exitY=0.145;exitDx=0;exitDy=0;exitPerimeter=0;entryX=0.5;entryY=1;entryDx=0;entryDy=0;" edge="1" parent="1" source="PIDiYUng-bvoLBhdt_yV-1" target="PIDiYUng-bvoLBhdt_yV-3">
          <mxGeometry relative="1" as="geometry" />
        </mxCell>
        <mxCell id="PIDiYUng-bvoLBhdt_yV-15" value="Port 1" style="edgeLabel;html=1;align=center;verticalAlign=middle;resizable=0;points=[];" vertex="1" connectable="0" parent="PIDiYUng-bvoLBhdt_yV-10">
          <mxGeometry x="-0.4096" y="-2" relative="1" as="geometry">
            <mxPoint as="offset" />
          </mxGeometry>
        </mxCell>
        <mxCell id="PIDiYUng-bvoLBhdt_yV-1" value="" style="sketch=0;points=[[0.5,0,0],[1,0.5,0],[0.5,1,0],[0,0.5,0],[0.145,0.145,0],[0.8555,0.145,0],[0.855,0.8555,0],[0.145,0.855,0]];verticalLabelPosition=bottom;html=1;verticalAlign=top;aspect=fixed;align=center;pointerEvents=1;shape=mxgraph.cisco19.rect;prIcon=router;fillColor=#FAFAFA;strokeColor=#005073;" vertex="1" parent="1">
          <mxGeometry x="440" y="170" width="50" height="50" as="geometry" />
        </mxCell>
        <mxCell id="PIDiYUng-bvoLBhdt_yV-2" value="NTK&lt;br&gt;" style="image;aspect=fixed;perimeter=ellipsePerimeter;html=1;align=center;shadow=0;dashed=0;fontColor=#4277BB;labelBackgroundColor=default;fontSize=12;spacingTop=3;image=img/lib/ibm/data/cloud.svg;" vertex="1" parent="1">
          <mxGeometry x="530" y="30" width="60" height="60" as="geometry" />
        </mxCell>
        <mxCell id="PIDiYUng-bvoLBhdt_yV-3" value="TTK" style="image;aspect=fixed;perimeter=ellipsePerimeter;html=1;align=center;shadow=0;dashed=0;fontColor=#4277BB;labelBackgroundColor=default;fontSize=12;spacingTop=3;image=img/lib/ibm/data/cloud.svg;" vertex="1" parent="1">
          <mxGeometry x="330" y="30" width="60" height="60" as="geometry" />
        </mxCell>
        <mxCell id="PIDiYUng-bvoLBhdt_yV-12" style="edgeStyle=orthogonalEdgeStyle;rounded=0;orthogonalLoop=1;jettySize=auto;html=1;exitX=1;exitY=0.5;exitDx=0;exitDy=0;exitPerimeter=0;entryX=0.5;entryY=1;entryDx=0;entryDy=0;entryPerimeter=0;" edge="1" parent="1" source="PIDiYUng-bvoLBhdt_yV-1" target="PIDiYUng-bvoLBhdt_yV-11">
          <mxGeometry relative="1" as="geometry" />
        </mxCell>
        <mxCell id="PIDiYUng-bvoLBhdt_yV-14" value="Port 2" style="edgeLabel;html=1;align=center;verticalAlign=middle;resizable=0;points=[];" vertex="1" connectable="0" parent="PIDiYUng-bvoLBhdt_yV-12">
          <mxGeometry x="-0.8267" relative="1" as="geometry">
            <mxPoint x="1" as="offset" />
          </mxGeometry>
        </mxCell>
        <mxCell id="PIDiYUng-bvoLBhdt_yV-11" value="Pluton-new" style="sketch=0;points=[[0.015,0.015,0],[0.985,0.015,0],[0.985,0.985,0],[0.015,0.985,0],[0.25,0,0],[0.5,0,0],[0.75,0,0],[1,0.25,0],[1,0.5,0],[1,0.75,0],[0.75,1,0],[0.5,1,0],[0.25,1,0],[0,0.75,0],[0,0.5,0],[0,0.25,0]];verticalLabelPosition=bottom;html=1;verticalAlign=top;aspect=fixed;align=center;pointerEvents=1;shape=mxgraph.cisco19.rect;prIcon=storage;fillColor=#FAFAFA;strokeColor=#005073;" vertex="1" parent="1">
          <mxGeometry x="670" y="30" width="64" height="50" as="geometry" />
        </mxCell>
        <mxCell id="PIDiYUng-bvoLBhdt_yV-13" value="" style="sketch=0;points=[[0,0.17,0,0,0],[0,0.33,0,0,0],[0,0.5,0,0,0],[0,0.67,0,0,0],[0,0.82,0,0,0],[0.015,0.015,0,0,0],[0.015,0.985,0,0,0],[0.17,0,0,0,0],[0.17,1,0,0,0],[0.33,0,0,0,0],[0.33,1,0,0,0],[0.5,0,0,0,0],[0.5,1,0,0,0],[0.67,0,0,0,0],[0.67,1,0,0,0],[0.82,0,0,0,0],[0.82,1,0,0,0],[0.985,0.015,0,0,0],[0.985,0.985,0,0,0],[1,0.17,0,0,0],[1,0.33,0,0,0],[1,0.5,0,0,0],[1,0.67,0,0,0],[1,0.82,0,0,0]];verticalLabelPosition=bottom;html=1;verticalAlign=top;aspect=fixed;align=center;pointerEvents=1;shape=mxgraph.cisco19.rect;prIcon=l2_switch;fillColor=#FAFAFA;strokeColor=#005073;" vertex="1" parent="1">
          <mxGeometry x="405" y="290" width="120" height="120" as="geometry" />
        </mxCell>
        <mxCell id="PIDiYUng-bvoLBhdt_yV-17" style="edgeStyle=orthogonalEdgeStyle;rounded=0;orthogonalLoop=1;jettySize=auto;html=1;exitX=0.5;exitY=1;exitDx=0;exitDy=0;exitPerimeter=0;entryX=0.5;entryY=0;entryDx=0;entryDy=0;entryPerimeter=0;" edge="1" parent="1" source="PIDiYUng-bvoLBhdt_yV-1" target="PIDiYUng-bvoLBhdt_yV-13">
          <mxGeometry relative="1" as="geometry" />
        </mxCell>
        <mxCell id="PIDiYUng-bvoLBhdt_yV-18" value="Port 4" style="edgeLabel;html=1;align=center;verticalAlign=middle;resizable=0;points=[];" vertex="1" connectable="0" parent="PIDiYUng-bvoLBhdt_yV-17">
          <mxGeometry x="-0.7371" y="1" relative="1" as="geometry">
            <mxPoint as="offset" />
          </mxGeometry>
        </mxCell>
        <mxCell id="PIDiYUng-bvoLBhdt_yV-19" value="Port 2" style="edgeLabel;html=1;align=center;verticalAlign=middle;resizable=0;points=[];" vertex="1" connectable="0" parent="PIDiYUng-bvoLBhdt_yV-17">
          <mxGeometry x="0.6" y="1" relative="1" as="geometry">
            <mxPoint x="-1" y="-6" as="offset" />
          </mxGeometry>
        </mxCell>
        <mxCell id="PIDiYUng-bvoLBhdt_yV-20" value="Офис 1208" style="sketch=0;points=[[0.015,0.015,0],[0.985,0.015,0],[0.985,0.985,0],[0.015,0.985,0],[0.25,0,0],[0.5,0,0],[0.75,0,0],[1,0.25,0],[1,0.5,0],[1,0.75,0],[0.75,1,0],[0.5,1,0],[0.25,1,0],[0,0.75,0],[0,0.5,0],[0,0.25,0]];verticalLabelPosition=bottom;html=1;verticalAlign=top;aspect=fixed;align=center;pointerEvents=1;shape=mxgraph.cisco19.rect;prIcon=firewall;fillColor=#FAFAFA;strokeColor=#005073;" vertex="1" parent="1">
          <mxGeometry x="680" y="230" width="64" height="50" as="geometry" />
        </mxCell>
        <mxCell id="PIDiYUng-bvoLBhdt_yV-25" style="edgeStyle=orthogonalEdgeStyle;rounded=0;orthogonalLoop=1;jettySize=auto;html=1;exitX=0.82;exitY=0;exitDx=0;exitDy=0;exitPerimeter=0;entryX=0;entryY=0.5;entryDx=0;entryDy=0;entryPerimeter=0;" edge="1" parent="1" source="PIDiYUng-bvoLBhdt_yV-13" target="PIDiYUng-bvoLBhdt_yV-20">
          <mxGeometry relative="1" as="geometry" />
        </mxCell>
        <mxCell id="PIDiYUng-bvoLBhdt_yV-26" value="Port 4" style="edgeLabel;html=1;align=center;verticalAlign=middle;resizable=0;points=[];" vertex="1" connectable="0" parent="PIDiYUng-bvoLBhdt_yV-25">
          <mxGeometry x="-0.5421" y="1" relative="1" as="geometry">
            <mxPoint x="8" y="1" as="offset" />
          </mxGeometry>
        </mxCell>
        <mxCell id="PIDiYUng-bvoLBhdt_yV-27" value="Телефонная старция" style="points=[[0.59,0,0],[0.87,0.015,0],[0.88,0.3,0],[0.99,0.99,0],[0.5,1,0],[0.01,0.99,0],[0.075,0.5,0],[0.17,0.115,0]];verticalLabelPosition=bottom;sketch=0;html=1;verticalAlign=top;aspect=fixed;align=center;pointerEvents=1;shape=mxgraph.cisco19.ip_phone;fillColor=#005073;strokeColor=none;" vertex="1" parent="1">
          <mxGeometry x="687" y="510" width="57.49999999999999" height="50" as="geometry" />
        </mxCell>
        <mxCell id="PIDiYUng-bvoLBhdt_yV-28" value="Артём-ПК" style="points=[[0.03,0.03,0],[0.5,0,0],[0.97,0.03,0],[1,0.4,0],[0.97,0.745,0],[0.5,1,0],[0.03,0.745,0],[0,0.4,0]];verticalLabelPosition=bottom;sketch=0;html=1;verticalAlign=top;aspect=fixed;align=center;pointerEvents=1;shape=mxgraph.cisco19.workstation;fillColor=#005073;strokeColor=none;" vertex="1" parent="1">
          <mxGeometry x="690.75" y="420" width="50" height="40" as="geometry" />
        </mxCell>
        <mxCell id="PIDiYUng-bvoLBhdt_yV-29" style="edgeStyle=orthogonalEdgeStyle;rounded=0;orthogonalLoop=1;jettySize=auto;html=1;exitX=1;exitY=0.67;exitDx=0;exitDy=0;exitPerimeter=0;entryX=0;entryY=0.4;entryDx=0;entryDy=0;entryPerimeter=0;" edge="1" parent="1" source="PIDiYUng-bvoLBhdt_yV-13" target="PIDiYUng-bvoLBhdt_yV-28">
          <mxGeometry relative="1" as="geometry" />
        </mxCell>
        <mxCell id="PIDiYUng-bvoLBhdt_yV-30" value="Port 7" style="edgeLabel;html=1;align=center;verticalAlign=middle;resizable=0;points=[];" vertex="1" connectable="0" parent="PIDiYUng-bvoLBhdt_yV-29">
          <mxGeometry x="-0.7035" y="-2" relative="1" as="geometry">
            <mxPoint x="-9" y="-2" as="offset" />
          </mxGeometry>
        </mxCell>
        <mxCell id="PIDiYUng-bvoLBhdt_yV-31" style="edgeStyle=orthogonalEdgeStyle;rounded=0;orthogonalLoop=1;jettySize=auto;html=1;exitX=1;exitY=0.82;exitDx=0;exitDy=0;exitPerimeter=0;entryX=0.075;entryY=0.5;entryDx=0;entryDy=0;entryPerimeter=0;" edge="1" parent="1" source="PIDiYUng-bvoLBhdt_yV-13" target="PIDiYUng-bvoLBhdt_yV-27">
          <mxGeometry relative="1" as="geometry">
            <Array as="points">
              <mxPoint x="590" y="388" />
              <mxPoint x="590" y="535" />
            </Array>
          </mxGeometry>
        </mxCell>
        <mxCell id="PIDiYUng-bvoLBhdt_yV-32" value="Port 8" style="edgeLabel;html=1;align=center;verticalAlign=middle;resizable=0;points=[];" vertex="1" connectable="0" parent="PIDiYUng-bvoLBhdt_yV-31">
          <mxGeometry x="-0.8876" relative="1" as="geometry">
            <mxPoint x="7" as="offset" />
          </mxGeometry>
        </mxCell>
        <mxCell id="PIDiYUng-bvoLBhdt_yV-33" value="Касса" style="sketch=0;points=[[0.015,0.015,0],[0.985,0.015,0],[0.985,0.985,0],[0.015,0.985,0],[0.25,0,0],[0.5,0,0],[0.75,0,0],[1,0.25,0],[1,0.5,0],[1,0.75,0],[0.75,1,0],[0.5,1,0],[0.25,1,0],[0,0.75,0],[0,0.5,0],[0,0.25,0]];verticalLabelPosition=bottom;html=1;verticalAlign=top;aspect=fixed;align=center;pointerEvents=1;shape=mxgraph.cisco19.pos;fillColor=#005073;strokeColor=none;" vertex="1" parent="1">
          <mxGeometry x="681" y="325" width="64" height="50" as="geometry" />
        </mxCell>
        <mxCell id="PIDiYUng-bvoLBhdt_yV-34" style="edgeStyle=orthogonalEdgeStyle;rounded=0;orthogonalLoop=1;jettySize=auto;html=1;exitX=1;exitY=0.5;exitDx=0;exitDy=0;exitPerimeter=0;entryX=0;entryY=0.5;entryDx=0;entryDy=0;entryPerimeter=0;" edge="1" parent="1" source="PIDiYUng-bvoLBhdt_yV-13" target="PIDiYUng-bvoLBhdt_yV-33">
          <mxGeometry relative="1" as="geometry" />
        </mxCell>
        <mxCell id="PIDiYUng-bvoLBhdt_yV-35" value="Port 5" style="edgeLabel;html=1;align=center;verticalAlign=middle;resizable=0;points=[];" vertex="1" connectable="0" parent="PIDiYUng-bvoLBhdt_yV-34">
          <mxGeometry x="-0.7432" y="-1" relative="1" as="geometry">
            <mxPoint x="5" y="-1" as="offset" />
          </mxGeometry>
        </mxCell>
        <mxCell id="PIDiYUng-bvoLBhdt_yV-36" value="Свитч Бровко" style="sketch=0;points=[[0.015,0.015,0],[0.985,0.015,0],[0.985,0.985,0],[0.015,0.985,0],[0.25,0,0],[0.5,0,0],[0.75,0,0],[1,0.25,0],[1,0.5,0],[1,0.75,0],[0.75,1,0],[0.5,1,0],[0.25,1,0],[0,0.75,0],[0,0.5,0],[0,0.25,0]];verticalLabelPosition=bottom;html=1;verticalAlign=top;aspect=fixed;align=center;pointerEvents=1;shape=mxgraph.cisco19.rect;prIcon=l2_switch;fillColor=#FAFAFA;strokeColor=#005073;" vertex="1" parent="1">
          <mxGeometry x="440" y="510" width="50" height="50" as="geometry" />
        </mxCell>
        <mxCell id="PIDiYUng-bvoLBhdt_yV-37" style="edgeStyle=orthogonalEdgeStyle;rounded=0;orthogonalLoop=1;jettySize=auto;html=1;exitX=0.5;exitY=1;exitDx=0;exitDy=0;exitPerimeter=0;entryX=0.5;entryY=0;entryDx=0;entryDy=0;entryPerimeter=0;" edge="1" parent="1" source="PIDiYUng-bvoLBhdt_yV-13" target="PIDiYUng-bvoLBhdt_yV-36">
          <mxGeometry relative="1" as="geometry" />
        </mxCell>
        <mxCell id="PIDiYUng-bvoLBhdt_yV-38" value="Port 3" style="edgeLabel;html=1;align=center;verticalAlign=middle;resizable=0;points=[];" vertex="1" connectable="0" parent="PIDiYUng-bvoLBhdt_yV-37">
          <mxGeometry x="-0.4095" relative="1" as="geometry">
            <mxPoint as="offset" />
          </mxGeometry>
        </mxCell>
        <mxCell id="PIDiYUng-bvoLBhdt_yV-39" value="Свитч под разетки &lt;br&gt;офиса1209" style="sketch=0;points=[[0.015,0.015,0],[0.985,0.015,0],[0.985,0.985,0],[0.015,0.985,0],[0.25,0,0],[0.5,0,0],[0.75,0,0],[1,0.25,0],[1,0.5,0],[1,0.75,0],[0.75,1,0],[0.5,1,0],[0.25,1,0],[0,0.75,0],[0,0.5,0],[0,0.25,0]];verticalLabelPosition=bottom;html=1;verticalAlign=top;aspect=fixed;align=center;pointerEvents=1;shape=mxgraph.cisco19.rect;prIcon=l2_switch;fillColor=#FAFAFA;strokeColor=#005073;" vertex="1" parent="1">
          <mxGeometry x="150" y="300" width="100" height="100" as="geometry" />
        </mxCell>
        <mxCell id="PIDiYUng-bvoLBhdt_yV-40" style="edgeStyle=orthogonalEdgeStyle;rounded=0;orthogonalLoop=1;jettySize=auto;html=1;exitX=0;exitY=0.5;exitDx=0;exitDy=0;exitPerimeter=0;entryX=1;entryY=0.5;entryDx=0;entryDy=0;entryPerimeter=0;" edge="1" parent="1" source="PIDiYUng-bvoLBhdt_yV-13" target="PIDiYUng-bvoLBhdt_yV-39">
          <mxGeometry relative="1" as="geometry" />
        </mxCell>
        <mxCell id="PIDiYUng-bvoLBhdt_yV-41" value="Port 6" style="edgeLabel;html=1;align=center;verticalAlign=middle;resizable=0;points=[];" vertex="1" connectable="0" parent="PIDiYUng-bvoLBhdt_yV-40">
          <mxGeometry x="-0.6172" y="-3" relative="1" as="geometry">
            <mxPoint y="3" as="offset" />
          </mxGeometry>
        </mxCell>
        <mxCell id="PIDiYUng-bvoLBhdt_yV-42" value="Port 10" style="edgeLabel;html=1;align=center;verticalAlign=middle;resizable=0;points=[];" vertex="1" connectable="0" parent="PIDiYUng-bvoLBhdt_yV-40">
          <mxGeometry x="0.704" y="3" relative="1" as="geometry">
            <mxPoint x="7" y="-3" as="offset" />
          </mxGeometry>
        </mxCell>
      </root>
    </mxGraphModel>
  </diagram>
</mxfile>
